<?xml version="1.0" encoding="UTF-8"?>
<svg id="Calque_1" data-name="Calque 1" xmlns="http://www.w3.org/2000/svg" xmlns:xlink="http://www.w3.org/1999/xlink" viewBox="0 0 28 28">
  <defs>
    <style>
      .cls-1 {
        isolation: isolate;
      }

      .cls-2 {
        fill: #fff;
      }

      .cls-2, .cls-3 {
        stroke-width: 0px;
      }

      .cls-3 {
        fill: url(#Dégradé_sans_nom);
      }
    </style>
    <radialGradient id="Dégradé_sans_nom" data-name="Dégradé sans nom" cx="-892.92" cy="555.75" fx="-892.92" fy="555.75" r="1.25" gradientTransform="translate(16240.28 -10081.47) scale(18.16)" gradientUnits="userSpaceOnUse">
      <stop offset="0" stop-color="#fff"/>
      <stop offset="0" stop-color="#fff"/>
      <stop offset=".03" stop-color="#cbffff"/>
      <stop offset=".06" stop-color="#96ffff"/>
      <stop offset=".08" stop-color="#68ffff"/>
      <stop offset=".11" stop-color="#43ffff"/>
      <stop offset=".14" stop-color="#25ffff"/>
      <stop offset=".16" stop-color="#1ff"/>
      <stop offset=".19" stop-color="#04ffff"/>
      <stop offset=".22" stop-color="aqua"/>
      <stop offset="1" stop-color="blue" stop-opacity="0"/>
    </radialGradient>
  </defs>
  <g id="Artboard1">
    <g id="Disney-Plus">
      <g>
        <path class="cls-2" d="M27.75,14.03v.39c0,.09-.07.16-.16.16h-1.88v.27c0,.58-.02,1.06-.08,1.59,0,.08-.07.14-.15.14h-.41s-.08-.02-.11-.05-.04-.07-.04-.11c.06-.53.08-1,.08-1.57v-.27h-1.86c-.09,0-.16-.07-.16-.16v-.39c0-.09.07-.16.16-.16h1.83c-.04-.64-.12-1.26-.24-1.89,0-.04,0-.08.03-.11.02-.03.06-.05.1-.05h.44c.07,0,.13.05.14.12.12.65.2,1.28.24,1.92h1.9c.08,0,.16.07.16.16h.01Z"/>
        <path class="cls-3" d="M25.19,10.91c-.97-2.38-2.61-4.42-4.74-5.88-2.18-1.5-4.74-2.29-7.4-2.29-4.39,0-8.47,2.18-10.9,5.84-.03.04-.03.09-.02.13,0,.05.05.08.1.1l.34.12h.06c.06,0,.12-.03.16-.08,1.12-1.64,2.63-3.01,4.37-3.95,1.8-.97,3.84-1.49,5.89-1.49,2.49,0,4.88.73,6.94,2.12,2,1.35,3.56,3.24,4.5,5.46.03.07.09.11.16.11h.41s.09-.02.12-.06.04-.09.02-.13h-.01ZM2.63,8.83h-.03.03ZM24.57,11.04s.02.01.03.01c0,0-.02,0-.03-.01Z"/>
      </g>
    </g>
    <g class="cls-1">
      <g class="cls-1">
        <path class="cls-2" d="M13.43,19.22c-.2,0-.4-.05-.52-.15-1.05-.92-2.2-1.75-4.12-1.75-1.17,0-2.67.37-2.67,2,0,2.07,4.7,2.92,5.75,2.92,4.82,0,6.1-3.2,6.1-4.75,0-5.65-11.95-.8-11.95-6.75,0-3.7,4.52-5.52,8.92-5.52,1.95,0,3.55.78,4.27,2.25.08.12.1.27.1.4,0,.85-1.25,1.6-1.85,1.6l-.15-.03s-.05-.02-.05-.05,0-.02.03-.05c.17-.22.52-.65.52-1,0-.05,0-.1-.03-.15-.12-.35-1.65-.92-3.75-.92s-5.72.77-5.72,3.37c0,4.17,11.85-.62,11.85,7.45,0,4.45-5.15,6.02-7.35,6.02-2.45,0-7.57-1.62-7.57-4.7,0-2.4,2.42-3.35,4.35-3.35s3.57.3,5.12,2.3c0,.5-.72.85-1.27.85Z"/>
      </g>
    </g>
  </g>
</svg>