<?xml version="1.0" encoding="UTF-8"?>
<svg id="Calque_1" data-name="Calque 1" xmlns="http://www.w3.org/2000/svg" xmlns:xlink="http://www.w3.org/1999/xlink" viewBox="0 0 24.85 13.9">
  <defs>
    <style>
      .cls-1 {
        isolation: isolate;
      }

      .cls-2 {
        fill: #fff;
      }

      .cls-2, .cls-3 {
        stroke-width: 0px;
      }

      .cls-3 {
        fill: url(#Dégradé_sans_nom);
      }
    </style>
    <radialGradient id="Dégradé_sans_nom" data-name="Dégradé sans nom" cx="-896.46" cy="556.57" fx="-896.46" fy="556.57" r="1" gradientTransform="translate(16301.6 -10100.41) scale(18.16)" gradientUnits="userSpaceOnUse">
      <stop offset="0" stop-color="#fff"/>
      <stop offset="0" stop-color="#fff"/>
      <stop offset=".03" stop-color="#cbffff"/>
      <stop offset=".06" stop-color="#96ffff"/>
      <stop offset=".08" stop-color="#68ffff"/>
      <stop offset=".11" stop-color="#43ffff"/>
      <stop offset=".14" stop-color="#25ffff"/>
      <stop offset=".16" stop-color="#1ff"/>
      <stop offset=".19" stop-color="#04ffff"/>
      <stop offset=".22" stop-color="aqua"/>
      <stop offset="1" stop-color="blue" stop-opacity="0"/>
    </radialGradient>
  </defs>
  <g id="Artboard1">
    <g id="Disney-Plus">
      <g>
        <g class="cls-1">
          <g class="cls-1">
            <path class="cls-2" d="M3.82,9.96c-.07,0-.14-.02-.18-.05-.36-.31-.75-.59-1.4-.59-.4,0-.91.13-.91.68,0,.71,1.6.99,1.95.99,1.64,0,2.07-1.09,2.07-1.62,0-1.92-4.06-.27-4.06-2.3,0-1.26,1.54-1.88,3.03-1.88.66,0,1.21.26,1.45.76.03.04.03.09.03.14,0,.29-.43.54-.63.54h-.05s-.02-.02-.02-.03t0-.02c.06-.08.18-.22.18-.34,0-.02,0-.03,0-.05-.04-.12-.56-.31-1.27-.31s-1.95.26-1.95,1.15c0,1.42,4.03-.21,4.03,2.53,0,1.51-1.75,2.05-2.5,2.05-.83,0-2.58-.55-2.58-1.6,0-.82.82-1.14,1.48-1.14s1.22.1,1.74.78c0,.17-.25.29-.43.29Z"/>
            <path class="cls-2" d="M8.32,6.12c.14,0,.48.14.48.46,0,.65-1.12,1.4-1.68,1.4-.17,0-.38-.03-.54-.08-.09.11-.13.2-.26.22-.08-.02-.2-.18-.21-.37,0-.04.02-.1.03-.14-.13-.17-.22-.32-.22-.51,0-.56.84-1.31,1.65-1.31.37,0,.67.14.72.33,0,0,.02,0,.03,0ZM6.37,7.12s.03,0,.04-.02c.11-.15.47-.49.66-.68h0s0-.03-.02-.05c-.42.08-.69.4-.72.73,0,0,.02.02.03.02ZM7.17,8.98c.02.69.08,1.41.08,2.09,0,.14-.05.3-.26.3-.07,0-.17-.03-.24-.05-.11-.03-.16-.37-.17-.45,0-.43,0-.44.03-.89,0-.12.03-.59.14-1.44,0-.04.02-.06.05-.06.31,0,.35.19.37.51ZM6.91,7.48h.19c.43,0,1.29-.29,1.29-.81,0-.12,0-.21-.22-.21-.49,0-.98.48-1.33.95,0,.02.04.07.07.07Z"/>
            <path class="cls-2" d="M7.69,8.73c0-.2.14-.31.43-.37.1,0,.19,0,.28,0,.82,0,1.48.32,1.98.97.21.33.26.48.26.8,0,.71-.86,1.26-1.63,1.26h-.05c-.03.08-.11.14-.23.21h-.07c-.21,0-.31-.11-.31-.34v-.03c-.38-.25-.57-.48-.57-.72,0-.12.03-.23.1-.34.09.13.23.22.41.31,0-.09,0-.17,0-.25,0-.67.16-1,.48-1h.06c.04.29.04.66.04.95v.54c.12.05.27.05.36.05.55,0,.82-.16.82-.48,0-.2-.12-.48-.37-.82-.41-.49-.94-.74-1.6-.74h-.1l-.19.26-.11-.15s0-.07,0-.09Z"/>
            <path class="cls-2" d="M12.91,10.94c-.23.18-.75.58-1.31.58-.47,0-.68-.35-.68-.71,0-.2.12-.46.21-.72-.03-.08-.07-.14-.07-.22,0-.07.03-.1.04-.17.07-.03.14-.06.22-.07l.2-.47c-.2-.09-.48-.2-.48-.38,0-.09.08-.12.22-.13.36-.02.77-.17,1.47-.17.08,0,.17,0,.35.06.08.09.27.27.27.42,0,.08-.3.18-.46.19-.37.03-.45.02-.68.03-.04,0-.08,0-.13,0-.03.03-.1.14-.1.36,0,.03.02.08.08.08h.63l.12.02c.04.06.05.17.05.25,0,.07-.02.2-.09.2-.15,0-.54.03-.96.03-.02,0-.03,0-.05.03-.04.18-.12.38-.2.57.04,0,.37-.08.91-.14.08,0,.2-.02.28-.02.1,0,.21.14.21.25,0,.05,0,.1-.05.13Z"/>
            <path class="cls-2" d="M13.94,11.38c-.19,0-.41-.16-.41-.41,0-.73.08-1.15.31-1.85.03-.13.2-.19.35-.19.12,0,.22.04.22.14-.17.71-.2,1.4-.25,2.1-.02.14-.11.2-.22.2ZM13.75,8.74c0-.2.54-.41.76-.41,1.02,0,1.62.45,1.62,1.27,0,.28-.15.52-.37.69.22.25.37.57.55.88.03.04.03.1.03.14,0,.17-.14.3-.25.3-.03,0-.06,0-.08-.03-.03-.03-.43-.61-.76-1.02-.16.04-.32.07-.48.07-.27,0-.46-.19-.46-.43,0-.16.26-.31.48-.31s.39.04.54.11c.11-.14.19-.29.19-.41,0-.65-.74-.76-1.14-.76-.17,0-.32.1-.46.11-.12-.06-.17-.13-.17-.19ZM15.02,10.28c-.1-.1-.13-.12-.24-.12-.1,0-.16.04-.16.09,0,.08.08.12.14.12.08,0,.14-.02.25-.09Z"/>
            <path class="cls-2" d="M17.98,8.1h.05c.11,0,.23.14.25.26.04.14.2.56.23.79.1.74.17,1.16.17,1.81,0,.3,0,.37-.03.48-.03.02-.06.03-.09.03-.16,0-.29-.18-.38-.4l-.03-.49h-.27c-.3,0-.4,0-.47,0-.03,0-.04,0-.05,0-.13.04-.19.37-.31.69l-.09.25s-.12.07-.2.07c-.05,0-.1-.02-.17-.03-.12-.13-.16-.24-.16-.42,0-.2.08-.46.24-.73,0-.14-.08-.28-.25-.31l.02-.16s.08,0,.12,0h.28c.14-.29.43-.89.64-1.2l.41-.5.03-.1s.05-.04.09-.04ZM17.82,9.91c.08,0,.17,0,.25,0,0-.16,0-.54-.12-.73-.12.03-.31.53-.37.73.08,0,.16,0,.24,0Z"/>
            <path class="cls-2" d="M19.91,8.49c0,.61-.25.79-.4,1.97v.03c0,.08.04.14.09.14.12,0,.31-.1.57-.2.13-.05.3-.14.38-.14s.09.14.09.2c0,.37-.63.91-1.04.91-.57,0-.65-.55-.65-.99,0-.64.36-1.59.54-1.94.05-.09.11-.14.26-.19.13,0,.14.06.14.19Z"/>
          </g>
        </g>
        <path class="cls-2" d="M24.11,9.32v.32c0,.07-.05.12-.12.12h-1.5v.21c0,.47-.02.85-.06,1.27,0,.06-.06.11-.12.11h-.32s-.06-.01-.09-.04-.03-.06-.03-.09c.05-.43.07-.8.07-1.26v-.21h-1.49c-.07,0-.12-.05-.12-.12v-.32c0-.07.05-.12.12-.12h1.46c-.03-.51-.09-1.01-.19-1.51,0-.03,0-.06.02-.09.02-.02.05-.04.08-.04h.35s.1.04.11.09c.1.52.16,1.02.19,1.54h1.52c.07,0,.12.06.12.12v.02Z"/>
        <path class="cls-3" d="M22.07,6.82c-.78-1.91-2.09-3.54-3.79-4.71-1.75-1.2-3.79-1.83-5.92-1.83-3.52,0-6.78,1.75-8.73,4.67-.02.03-.03.07-.01.11.01.04.04.06.08.08l.27.09h.05c.05,0,.1-.03.13-.07.89-1.31,2.1-2.41,3.5-3.16,1.44-.78,3.07-1.19,4.72-1.19,1.99,0,3.91.59,5.55,1.7,1.6,1.08,2.85,2.59,3.6,4.37.02.05.07.09.13.09h.32s.07-.02.09-.05.03-.07.01-.11h0ZM4.01,5.16h-.02.02ZM21.57,6.93s.01,0,.02.01c0,0-.01,0-.02-.01Z"/>
      </g>
    </g>
  </g>
</svg>